<svg width="18" height="19" viewBox="0 0 18 19" fill="none" xmlns="http://www.w3.org/2000/svg">
<path d="M12.75 2.74998C12.947 2.553 13.1808 2.39674 13.4382 2.29014C13.6956 2.18353 13.9714 2.12866 14.25 2.12866C14.5286 2.12866 14.8044 2.18353 15.0618 2.29014C15.3192 2.39674 15.553 2.553 15.75 2.74998C15.947 2.94697 16.1032 3.18082 16.2098 3.43819C16.3165 3.69556 16.3713 3.97141 16.3713 4.24998C16.3713 4.52856 16.3165 4.80441 16.2098 5.06178C16.1032 5.31915 15.947 5.553 15.75 5.74998L5.625 15.875L1.5 17L2.625 12.875L12.75 2.74998Z" stroke="#1E1E1E" stroke-width="1.5" stroke-linecap="round" stroke-linejoin="round"/>
<path d="M12.75 2.74998C12.947 2.553 13.1808 2.39674 13.4382 2.29014C13.6956 2.18353 13.9714 2.12866 14.25 2.12866C14.5286 2.12866 14.8044 2.18353 15.0618 2.29014C15.3192 2.39674 15.553 2.553 15.75 2.74998C15.947 2.94697 16.1032 3.18082 16.2098 3.43819C16.3165 3.69556 16.3713 3.97141 16.3713 4.24998C16.3713 4.52856 16.3165 4.80441 16.2098 5.06178C16.1032 5.31915 15.947 5.553 15.75 5.74998L5.625 15.875L1.5 17L2.625 12.875L12.75 2.74998Z" stroke="#1E1E1E" stroke-width="1.5" stroke-linecap="round" stroke-linejoin="round"/>
<path d="M12.75 2.74998C12.947 2.553 13.1808 2.39674 13.4382 2.29014C13.6956 2.18353 13.9714 2.12866 14.25 2.12866C14.5286 2.12866 14.8044 2.18353 15.0618 2.29014C15.3192 2.39674 15.553 2.553 15.75 2.74998C15.947 2.94697 16.1032 3.18082 16.2098 3.43819C16.3165 3.69556 16.3713 3.97141 16.3713 4.24998C16.3713 4.52856 16.3165 4.80441 16.2098 5.06178C16.1032 5.31915 15.947 5.553 15.75 5.74998L5.625 15.875L1.5 17L2.625 12.875L12.75 2.74998Z" stroke="#1E1E1E" stroke-width="1.5" stroke-linecap="round" stroke-linejoin="round"/>
<path d="M12.75 2.74998C12.947 2.553 13.1808 2.39674 13.4382 2.29014C13.6956 2.18353 13.9714 2.12866 14.25 2.12866C14.5286 2.12866 14.8044 2.18353 15.0618 2.29014C15.3192 2.39674 15.553 2.553 15.75 2.74998C15.947 2.94697 16.1032 3.18082 16.2098 3.43819C16.3165 3.69556 16.3713 3.97141 16.3713 4.24998C16.3713 4.52856 16.3165 4.80441 16.2098 5.06178C16.1032 5.31915 15.947 5.553 15.75 5.74998L5.625 15.875L1.5 17L2.625 12.875L12.75 2.74998Z" stroke="#1E1E1E" stroke-width="1.5" stroke-linecap="round" stroke-linejoin="round"/>
</svg>
